<svg width="128" height="128" viewBox="0 0 128 128" fill="none" xmlns="http://www.w3.org/2000/svg">
<rect width="128" height="128" rx="16" fill="#1E1A24"/>
<path d="M23.8511 47.338C23.8511 49.3756 24.4121 51.0188 25.5342 52.2676C26.7223 53.4507 28.2734 54.4038 30.1875 55.1268C32.1017 55.784 34.2468 56.3756 36.623 56.9014C38.9992 57.3615 41.4414 57.8545 43.9495 58.3803C46.5237 58.8404 48.9989 59.4977 51.3751 60.3521C53.7513 61.2066 55.8964 62.3568 57.8105 63.8028C59.7907 65.1831 61.3418 67.0235 62.4639 69.3239C63.586 71.5587 64.147 74.385 64.147 77.8028C64.147 82.2723 62.9919 86.1174 60.6818 89.338C58.4376 92.493 55.3354 94.892 51.3751 96.5352C47.4148 98.1784 42.8935 99 37.8111 99C32.6627 99 28.0754 98.2113 24.0491 96.6338C20.0888 95.0563 16.7886 92.6573 14.1484 89.4366C11.5742 86.216 9.85806 82.1737 9 77.3099H22.96C23.8181 80.8592 25.5012 83.5868 28.0094 85.493C30.5836 87.3991 33.8838 88.3521 37.9101 88.3521C42.0684 88.3521 45.2036 87.5634 47.3158 85.9859C49.4279 84.3427 50.484 82.1737 50.484 79.4789C50.484 77.3099 49.923 75.5681 48.8009 74.2535C47.6788 72.939 46.1607 71.9202 44.2466 71.1972C42.3324 70.4084 40.1873 69.7512 37.8111 69.2254C35.4349 68.6995 32.9597 68.1737 30.3856 67.6479C27.8774 67.0563 25.4022 66.3662 22.96 65.5775C20.5838 64.723 18.4387 63.6056 16.5245 62.2254C14.6104 60.8451 13.0923 59.0704 11.9702 56.9014C10.8481 54.6667 10.2871 51.8732 10.2871 48.5211C10.2871 44.9718 11.2442 41.7183 13.1583 38.7606C15.0724 35.8028 17.8776 33.4366 21.5739 31.662C25.2702 29.8873 29.7585 29 35.0389 29C39.5932 29 43.7845 29.7559 47.6128 31.2676C51.5071 32.7793 54.7413 35.1127 57.3155 38.2676C59.9557 41.4225 61.6058 45.5305 62.2659 50.5916H48.1078C47.3158 46.7793 45.7647 44.0188 43.4545 42.3099C41.2103 40.5352 38.2731 39.6479 34.6429 39.6479C31.2766 39.6479 28.6364 40.3709 26.7223 41.8169C24.8082 43.1972 23.8511 45.0376 23.8511 47.338Z" fill="#F1E6C8"/>
<path d="M64.7777 97.5211V30.4789H78.1437V97.5211H64.7777ZM74.4804 41.0282V30.4789H112.103V41.0282H74.4804ZM74.4804 70.507V59.9577H108.341V70.507H74.4804Z" fill="#F1E6C8"/>
<path d="M105.04 97.5211V83.6197H119V97.5211H105.04Z" fill="#F1E6C8"/>
</svg>
